<mxfile host="app.diagrams.net" modified="2023-11-09T20:50:50.548Z" agent="Mozilla/5.0 (X11; Linux x86_64; rv:109.0) Gecko/20100101 Firefox/119.0" etag="j8F_pRUo6vbzVIyef-0l" version="22.1.0" type="device">
  <diagram name="Page-1" id="DhqrK9OoihL1AYDFVoek">
    <mxGraphModel dx="2333" dy="1229" grid="0" gridSize="10" guides="1" tooltips="1" connect="1" arrows="1" fold="1" page="1" pageScale="1" pageWidth="1654" pageHeight="1169" math="0" shadow="0">
      <root>
        <mxCell id="0" />
        <mxCell id="1" parent="0" />
        <mxCell id="AF57wnsFzuelbNc37cwG-21" value="" style="rounded=0;whiteSpace=wrap;html=1;" vertex="1" parent="1">
          <mxGeometry x="396" y="510" width="1211" height="601" as="geometry" />
        </mxCell>
        <mxCell id="6iZnvACgIxLlrnmqDq4K-45" style="edgeStyle=orthogonalEdgeStyle;rounded=0;orthogonalLoop=1;jettySize=auto;html=1;" parent="1" source="6iZnvACgIxLlrnmqDq4K-37" target="6iZnvACgIxLlrnmqDq4K-44" edge="1">
          <mxGeometry relative="1" as="geometry" />
        </mxCell>
        <mxCell id="6iZnvACgIxLlrnmqDq4K-37" value="" style="whiteSpace=wrap;html=1;aspect=fixed;fillColor=none;movable=1;resizable=1;rotatable=1;deletable=1;editable=1;locked=0;connectable=1;" parent="1" vertex="1">
          <mxGeometry x="34" y="181" width="323" height="323" as="geometry" />
        </mxCell>
        <mxCell id="6iZnvACgIxLlrnmqDq4K-27" value="User" style="swimlane;fontStyle=0;childLayout=stackLayout;horizontal=1;startSize=30;horizontalStack=0;resizeParent=1;resizeParentMax=0;resizeLast=0;collapsible=1;marginBottom=0;whiteSpace=wrap;html=1;" parent="1" vertex="1">
          <mxGeometry x="116.5" y="205" width="158" height="275" as="geometry" />
        </mxCell>
        <mxCell id="6iZnvACgIxLlrnmqDq4K-28" value="+ Id (int)" style="text;strokeColor=none;fillColor=none;align=left;verticalAlign=middle;spacingLeft=4;spacingRight=4;overflow=hidden;points=[[0,0.5],[1,0.5]];portConstraint=eastwest;rotatable=0;whiteSpace=wrap;html=1;" parent="6iZnvACgIxLlrnmqDq4K-27" vertex="1">
          <mxGeometry y="30" width="158" height="30" as="geometry" />
        </mxCell>
        <mxCell id="6iZnvACgIxLlrnmqDq4K-29" value="+ EmailAddres (string)" style="text;strokeColor=none;fillColor=none;align=left;verticalAlign=middle;spacingLeft=4;spacingRight=4;overflow=hidden;points=[[0,0.5],[1,0.5]];portConstraint=eastwest;rotatable=0;whiteSpace=wrap;html=1;" parent="6iZnvACgIxLlrnmqDq4K-27" vertex="1">
          <mxGeometry y="60" width="158" height="30" as="geometry" />
        </mxCell>
        <mxCell id="6iZnvACgIxLlrnmqDq4K-30" value="+ Password (string)" style="text;strokeColor=none;fillColor=none;align=left;verticalAlign=middle;spacingLeft=4;spacingRight=4;overflow=hidden;points=[[0,0.5],[1,0.5]];portConstraint=eastwest;rotatable=0;whiteSpace=wrap;html=1;" parent="6iZnvACgIxLlrnmqDq4K-27" vertex="1">
          <mxGeometry y="90" width="158" height="30" as="geometry" />
        </mxCell>
        <mxCell id="6iZnvACgIxLlrnmqDq4K-38" value="+ IsAdmin(bool)" style="text;strokeColor=none;fillColor=none;align=left;verticalAlign=middle;spacingLeft=4;spacingRight=4;overflow=hidden;points=[[0,0.5],[1,0.5]];portConstraint=eastwest;rotatable=0;whiteSpace=wrap;html=1;" parent="6iZnvACgIxLlrnmqDq4K-27" vertex="1">
          <mxGeometry y="120" width="158" height="30" as="geometry" />
        </mxCell>
        <mxCell id="6iZnvACgIxLlrnmqDq4K-32" value="+ FirstName (string)" style="text;strokeColor=none;fillColor=none;align=left;verticalAlign=middle;spacingLeft=4;spacingRight=4;overflow=hidden;points=[[0,0.5],[1,0.5]];portConstraint=eastwest;rotatable=0;whiteSpace=wrap;html=1;" parent="6iZnvACgIxLlrnmqDq4K-27" vertex="1">
          <mxGeometry y="150" width="158" height="30" as="geometry" />
        </mxCell>
        <mxCell id="6iZnvACgIxLlrnmqDq4K-33" value="+ LastName (string)" style="text;strokeColor=none;fillColor=none;align=left;verticalAlign=middle;spacingLeft=4;spacingRight=4;overflow=hidden;points=[[0,0.5],[1,0.5]];portConstraint=eastwest;rotatable=0;whiteSpace=wrap;html=1;" parent="6iZnvACgIxLlrnmqDq4K-27" vertex="1">
          <mxGeometry y="180" width="158" height="30" as="geometry" />
        </mxCell>
        <mxCell id="6iZnvACgIxLlrnmqDq4K-34" value="+ PhoneNumber (string)" style="text;strokeColor=none;fillColor=none;align=left;verticalAlign=middle;spacingLeft=4;spacingRight=4;overflow=hidden;points=[[0,0.5],[1,0.5]];portConstraint=eastwest;rotatable=0;whiteSpace=wrap;html=1;" parent="6iZnvACgIxLlrnmqDq4K-27" vertex="1">
          <mxGeometry y="210" width="158" height="30" as="geometry" />
        </mxCell>
        <mxCell id="6iZnvACgIxLlrnmqDq4K-35" value="+ CrationTime? (DateTime)" style="text;strokeColor=none;fillColor=none;align=left;verticalAlign=middle;spacingLeft=4;spacingRight=4;overflow=hidden;points=[[0,0.5],[1,0.5]];portConstraint=eastwest;rotatable=0;whiteSpace=wrap;html=1;" parent="6iZnvACgIxLlrnmqDq4K-27" vertex="1">
          <mxGeometry y="240" width="158" height="35" as="geometry" />
        </mxCell>
        <mxCell id="6iZnvACgIxLlrnmqDq4K-40" value="&lt;b&gt;&lt;font style=&quot;font-size: 30px;&quot;&gt;Project 8.1 UML&lt;/font&gt;&lt;/b&gt;" style="text;html=1;strokeColor=none;fillColor=none;align=center;verticalAlign=middle;whiteSpace=wrap;rounded=0;movable=1;resizable=1;rotatable=1;deletable=1;editable=1;locked=0;connectable=1;" parent="1" vertex="1">
          <mxGeometry x="11.5" y="7" width="263" height="53" as="geometry" />
        </mxCell>
        <mxCell id="6iZnvACgIxLlrnmqDq4K-41" value="&lt;b&gt;&lt;font style=&quot;font-size: 20px;&quot;&gt;Login Web API&lt;/font&gt;&lt;/b&gt;" style="text;html=1;strokeColor=none;fillColor=none;align=center;verticalAlign=middle;whiteSpace=wrap;rounded=0;" parent="1" vertex="1">
          <mxGeometry x="34" y="144" width="158" height="30" as="geometry" />
        </mxCell>
        <mxCell id="AF57wnsFzuelbNc37cwG-22" style="edgeStyle=orthogonalEdgeStyle;rounded=0;orthogonalLoop=1;jettySize=auto;html=1;" edge="1" parent="1" source="6iZnvACgIxLlrnmqDq4K-44" target="6iZnvACgIxLlrnmqDq4K-50">
          <mxGeometry relative="1" as="geometry" />
        </mxCell>
        <mxCell id="6iZnvACgIxLlrnmqDq4K-44" value="&lt;b&gt;&lt;font style=&quot;font-size: 20px;&quot;&gt;Service&lt;/font&gt;&lt;/b&gt;" style="html=1;whiteSpace=wrap;" parent="1" vertex="1">
          <mxGeometry x="140.5" y="650" width="110" height="50" as="geometry" />
        </mxCell>
        <mxCell id="6iZnvACgIxLlrnmqDq4K-49" value="&lt;b&gt;&lt;font style=&quot;font-size: 20px;&quot;&gt;Lab Manager Web API&lt;/font&gt;&lt;/b&gt;" style="text;html=1;strokeColor=none;fillColor=none;align=center;verticalAlign=middle;whiteSpace=wrap;rounded=0;" parent="1" vertex="1">
          <mxGeometry x="396" y="469" width="208" height="30" as="geometry" />
        </mxCell>
        <mxCell id="6iZnvACgIxLlrnmqDq4K-50" value="&lt;b&gt;Lab User&lt;/b&gt;" style="swimlane;fontStyle=0;childLayout=stackLayout;horizontal=1;startSize=30;horizontalStack=0;resizeParent=1;resizeParentMax=0;resizeLast=0;collapsible=1;marginBottom=0;whiteSpace=wrap;html=1;" parent="1" vertex="1">
          <mxGeometry x="432" y="555" width="158" height="240" as="geometry" />
        </mxCell>
        <mxCell id="6iZnvACgIxLlrnmqDq4K-51" value="+ Id (int)" style="text;strokeColor=none;fillColor=none;align=left;verticalAlign=middle;spacingLeft=4;spacingRight=4;overflow=hidden;points=[[0,0.5],[1,0.5]];portConstraint=eastwest;rotatable=0;whiteSpace=wrap;html=1;" parent="6iZnvACgIxLlrnmqDq4K-50" vertex="1">
          <mxGeometry y="30" width="158" height="30" as="geometry" />
        </mxCell>
        <mxCell id="6iZnvACgIxLlrnmqDq4K-55" value="+ FirstName (string)" style="text;strokeColor=none;fillColor=none;align=left;verticalAlign=middle;spacingLeft=4;spacingRight=4;overflow=hidden;points=[[0,0.5],[1,0.5]];portConstraint=eastwest;rotatable=0;whiteSpace=wrap;html=1;" parent="6iZnvACgIxLlrnmqDq4K-50" vertex="1">
          <mxGeometry y="60" width="158" height="30" as="geometry" />
        </mxCell>
        <mxCell id="6iZnvACgIxLlrnmqDq4K-56" value="+ LastName (string)" style="text;strokeColor=none;fillColor=none;align=left;verticalAlign=middle;spacingLeft=4;spacingRight=4;overflow=hidden;points=[[0,0.5],[1,0.5]];portConstraint=eastwest;rotatable=0;whiteSpace=wrap;html=1;" parent="6iZnvACgIxLlrnmqDq4K-50" vertex="1">
          <mxGeometry y="90" width="158" height="30" as="geometry" />
        </mxCell>
        <mxCell id="6iZnvACgIxLlrnmqDq4K-52" value="+ EmailAddres (string)" style="text;strokeColor=none;fillColor=none;align=left;verticalAlign=middle;spacingLeft=4;spacingRight=4;overflow=hidden;points=[[0,0.5],[1,0.5]];portConstraint=eastwest;rotatable=0;whiteSpace=wrap;html=1;" parent="6iZnvACgIxLlrnmqDq4K-50" vertex="1">
          <mxGeometry y="120" width="158" height="30" as="geometry" />
        </mxCell>
        <mxCell id="6iZnvACgIxLlrnmqDq4K-57" value="+ PhoneNumber (string)" style="text;strokeColor=none;fillColor=none;align=left;verticalAlign=middle;spacingLeft=4;spacingRight=4;overflow=hidden;points=[[0,0.5],[1,0.5]];portConstraint=eastwest;rotatable=0;whiteSpace=wrap;html=1;" parent="6iZnvACgIxLlrnmqDq4K-50" vertex="1">
          <mxGeometry y="150" width="158" height="30" as="geometry" />
        </mxCell>
        <mxCell id="6iZnvACgIxLlrnmqDq4K-54" value="+ IsAdmin(bool)" style="text;strokeColor=none;fillColor=none;align=left;verticalAlign=middle;spacingLeft=4;spacingRight=4;overflow=hidden;points=[[0,0.5],[1,0.5]];portConstraint=eastwest;rotatable=0;whiteSpace=wrap;html=1;" parent="6iZnvACgIxLlrnmqDq4K-50" vertex="1">
          <mxGeometry y="180" width="158" height="30" as="geometry" />
        </mxCell>
        <mxCell id="6iZnvACgIxLlrnmqDq4K-59" value="+ Token? (string)" style="text;strokeColor=none;fillColor=none;align=left;verticalAlign=middle;spacingLeft=4;spacingRight=4;overflow=hidden;points=[[0,0.5],[1,0.5]];portConstraint=eastwest;rotatable=0;whiteSpace=wrap;html=1;" parent="6iZnvACgIxLlrnmqDq4K-50" vertex="1">
          <mxGeometry y="210" width="158" height="30" as="geometry" />
        </mxCell>
        <mxCell id="6iZnvACgIxLlrnmqDq4K-115" style="edgeStyle=orthogonalEdgeStyle;rounded=0;orthogonalLoop=1;jettySize=auto;html=1;endArrow=none;endFill=0;" parent="1" source="6iZnvACgIxLlrnmqDq4K-65" target="6iZnvACgIxLlrnmqDq4K-110" edge="1">
          <mxGeometry relative="1" as="geometry" />
        </mxCell>
        <mxCell id="6iZnvACgIxLlrnmqDq4K-65" value="&lt;b&gt;Item&lt;/b&gt;" style="swimlane;fontStyle=0;childLayout=stackLayout;horizontal=1;startSize=30;horizontalStack=0;resizeParent=1;resizeParentMax=0;resizeLast=0;collapsible=1;marginBottom=0;whiteSpace=wrap;html=1;" parent="1" vertex="1">
          <mxGeometry x="977.5" y="797.5" width="184" height="240" as="geometry" />
        </mxCell>
        <mxCell id="6iZnvACgIxLlrnmqDq4K-66" value="+ Id (int)" style="text;strokeColor=none;fillColor=none;align=left;verticalAlign=middle;spacingLeft=4;spacingRight=4;overflow=hidden;points=[[0,0.5],[1,0.5]];portConstraint=eastwest;rotatable=0;whiteSpace=wrap;html=1;" parent="6iZnvACgIxLlrnmqDq4K-65" vertex="1">
          <mxGeometry y="30" width="184" height="30" as="geometry" />
        </mxCell>
        <mxCell id="6iZnvACgIxLlrnmqDq4K-67" value="+ Name (string)" style="text;strokeColor=none;fillColor=none;align=left;verticalAlign=middle;spacingLeft=4;spacingRight=4;overflow=hidden;points=[[0,0.5],[1,0.5]];portConstraint=eastwest;rotatable=0;whiteSpace=wrap;html=1;" parent="6iZnvACgIxLlrnmqDq4K-65" vertex="1">
          <mxGeometry y="60" width="184" height="30" as="geometry" />
        </mxCell>
        <mxCell id="6iZnvACgIxLlrnmqDq4K-68" value="+ Description (string)" style="text;strokeColor=none;fillColor=none;align=left;verticalAlign=middle;spacingLeft=4;spacingRight=4;overflow=hidden;points=[[0,0.5],[1,0.5]];portConstraint=eastwest;rotatable=0;whiteSpace=wrap;html=1;" parent="6iZnvACgIxLlrnmqDq4K-65" vertex="1">
          <mxGeometry y="90" width="184" height="30" as="geometry" />
        </mxCell>
        <mxCell id="AF57wnsFzuelbNc37cwG-2" value="+ Status (...)" style="text;strokeColor=none;fillColor=none;align=left;verticalAlign=middle;spacingLeft=4;spacingRight=4;overflow=hidden;points=[[0,0.5],[1,0.5]];portConstraint=eastwest;rotatable=0;whiteSpace=wrap;html=1;" vertex="1" parent="6iZnvACgIxLlrnmqDq4K-65">
          <mxGeometry y="120" width="184" height="30" as="geometry" />
        </mxCell>
        <mxCell id="6iZnvACgIxLlrnmqDq4K-79" value="+ CreationDate (DateTime)" style="text;strokeColor=none;fillColor=none;align=left;verticalAlign=middle;spacingLeft=4;spacingRight=4;overflow=hidden;points=[[0,0.5],[1,0.5]];portConstraint=eastwest;rotatable=0;whiteSpace=wrap;html=1;" parent="6iZnvACgIxLlrnmqDq4K-65" vertex="1">
          <mxGeometry y="150" width="184" height="30" as="geometry" />
        </mxCell>
        <mxCell id="6iZnvACgIxLlrnmqDq4K-80" value="+ ItemId (string)" style="text;strokeColor=none;fillColor=none;align=left;verticalAlign=middle;spacingLeft=4;spacingRight=4;overflow=hidden;points=[[0,0.5],[1,0.5]];portConstraint=eastwest;rotatable=0;whiteSpace=wrap;html=1;" parent="6iZnvACgIxLlrnmqDq4K-65" vertex="1">
          <mxGeometry y="180" width="184" height="30" as="geometry" />
        </mxCell>
        <mxCell id="AF57wnsFzuelbNc37cwG-3" value="&lt;b&gt;+ RoomId (FK)&lt;/b&gt;" style="text;strokeColor=none;fillColor=none;align=left;verticalAlign=middle;spacingLeft=4;spacingRight=4;overflow=hidden;points=[[0,0.5],[1,0.5]];portConstraint=eastwest;rotatable=0;whiteSpace=wrap;html=1;" vertex="1" parent="6iZnvACgIxLlrnmqDq4K-65">
          <mxGeometry y="210" width="184" height="30" as="geometry" />
        </mxCell>
        <mxCell id="6iZnvACgIxLlrnmqDq4K-73" value="&lt;b&gt;Reservation&lt;/b&gt;" style="swimlane;fontStyle=0;childLayout=stackLayout;horizontal=1;startSize=30;horizontalStack=0;resizeParent=1;resizeParentMax=0;resizeLast=0;collapsible=1;marginBottom=0;whiteSpace=wrap;html=1;" parent="1" vertex="1">
          <mxGeometry x="674" y="809.5" width="140" height="210" as="geometry" />
        </mxCell>
        <mxCell id="6iZnvACgIxLlrnmqDq4K-74" value="+ Id (int)" style="text;strokeColor=none;fillColor=none;align=left;verticalAlign=middle;spacingLeft=4;spacingRight=4;overflow=hidden;points=[[0,0.5],[1,0.5]];portConstraint=eastwest;rotatable=0;whiteSpace=wrap;html=1;" parent="6iZnvACgIxLlrnmqDq4K-73" vertex="1">
          <mxGeometry y="30" width="140" height="30" as="geometry" />
        </mxCell>
        <mxCell id="6iZnvACgIxLlrnmqDq4K-75" value="&lt;b&gt;+ UserId (int) FK&lt;/b&gt;" style="text;strokeColor=none;fillColor=none;align=left;verticalAlign=middle;spacingLeft=4;spacingRight=4;overflow=hidden;points=[[0,0.5],[1,0.5]];portConstraint=eastwest;rotatable=0;whiteSpace=wrap;html=1;" parent="6iZnvACgIxLlrnmqDq4K-73" vertex="1">
          <mxGeometry y="60" width="140" height="30" as="geometry" />
        </mxCell>
        <mxCell id="6iZnvACgIxLlrnmqDq4K-76" value="&lt;b&gt;+ ItemId (int) FK&lt;/b&gt;" style="text;strokeColor=none;fillColor=none;align=left;verticalAlign=middle;spacingLeft=4;spacingRight=4;overflow=hidden;points=[[0,0.5],[1,0.5]];portConstraint=eastwest;rotatable=0;whiteSpace=wrap;html=1;" parent="6iZnvACgIxLlrnmqDq4K-73" vertex="1">
          <mxGeometry y="90" width="140" height="30" as="geometry" />
        </mxCell>
        <mxCell id="6iZnvACgIxLlrnmqDq4K-105" value="+ StartTime (DateTime)" style="text;strokeColor=none;fillColor=none;align=left;verticalAlign=middle;spacingLeft=4;spacingRight=4;overflow=hidden;points=[[0,0.5],[1,0.5]];portConstraint=eastwest;rotatable=0;whiteSpace=wrap;html=1;" parent="6iZnvACgIxLlrnmqDq4K-73" vertex="1">
          <mxGeometry y="120" width="140" height="30" as="geometry" />
        </mxCell>
        <mxCell id="AF57wnsFzuelbNc37cwG-14" value="+ EndTime (DateTime)" style="text;strokeColor=none;fillColor=none;align=left;verticalAlign=middle;spacingLeft=4;spacingRight=4;overflow=hidden;points=[[0,0.5],[1,0.5]];portConstraint=eastwest;rotatable=0;whiteSpace=wrap;html=1;" vertex="1" parent="6iZnvACgIxLlrnmqDq4K-73">
          <mxGeometry y="150" width="140" height="30" as="geometry" />
        </mxCell>
        <mxCell id="AF57wnsFzuelbNc37cwG-13" value="+ StatusReservation" style="text;strokeColor=none;fillColor=none;align=left;verticalAlign=middle;spacingLeft=4;spacingRight=4;overflow=hidden;points=[[0,0.5],[1,0.5]];portConstraint=eastwest;rotatable=0;whiteSpace=wrap;html=1;" vertex="1" parent="6iZnvACgIxLlrnmqDq4K-73">
          <mxGeometry y="180" width="140" height="30" as="geometry" />
        </mxCell>
        <mxCell id="6iZnvACgIxLlrnmqDq4K-91" value="&lt;b&gt;Room&lt;/b&gt;" style="swimlane;fontStyle=0;childLayout=stackLayout;horizontal=1;startSize=30;horizontalStack=0;resizeParent=1;resizeParentMax=0;resizeLast=0;collapsible=1;marginBottom=0;whiteSpace=wrap;html=1;" parent="1" vertex="1">
          <mxGeometry x="1321" y="896" width="140" height="90" as="geometry" />
        </mxCell>
        <mxCell id="6iZnvACgIxLlrnmqDq4K-92" value="+ Id (int)" style="text;strokeColor=none;fillColor=none;align=left;verticalAlign=middle;spacingLeft=4;spacingRight=4;overflow=hidden;points=[[0,0.5],[1,0.5]];portConstraint=eastwest;rotatable=0;whiteSpace=wrap;html=1;" parent="6iZnvACgIxLlrnmqDq4K-91" vertex="1">
          <mxGeometry y="30" width="140" height="30" as="geometry" />
        </mxCell>
        <mxCell id="6iZnvACgIxLlrnmqDq4K-93" value="+ Name (string)" style="text;strokeColor=none;fillColor=none;align=left;verticalAlign=middle;spacingLeft=4;spacingRight=4;overflow=hidden;points=[[0,0.5],[1,0.5]];portConstraint=eastwest;rotatable=0;whiteSpace=wrap;html=1;" parent="6iZnvACgIxLlrnmqDq4K-91" vertex="1">
          <mxGeometry y="60" width="140" height="30" as="geometry" />
        </mxCell>
        <mxCell id="6iZnvACgIxLlrnmqDq4K-98" value="&lt;b&gt;Software&lt;/b&gt;" style="swimlane;fontStyle=0;childLayout=stackLayout;horizontal=1;startSize=30;horizontalStack=0;resizeParent=1;resizeParentMax=0;resizeLast=0;collapsible=1;marginBottom=0;whiteSpace=wrap;html=1;" parent="1" vertex="1">
          <mxGeometry x="1416" y="597" width="140" height="90" as="geometry" />
        </mxCell>
        <mxCell id="6iZnvACgIxLlrnmqDq4K-99" value="+ Id (int)" style="text;strokeColor=none;fillColor=none;align=left;verticalAlign=middle;spacingLeft=4;spacingRight=4;overflow=hidden;points=[[0,0.5],[1,0.5]];portConstraint=eastwest;rotatable=0;whiteSpace=wrap;html=1;" parent="6iZnvACgIxLlrnmqDq4K-98" vertex="1">
          <mxGeometry y="30" width="140" height="30" as="geometry" />
        </mxCell>
        <mxCell id="6iZnvACgIxLlrnmqDq4K-100" value="+ Name (string)" style="text;strokeColor=none;fillColor=none;align=left;verticalAlign=middle;spacingLeft=4;spacingRight=4;overflow=hidden;points=[[0,0.5],[1,0.5]];portConstraint=eastwest;rotatable=0;whiteSpace=wrap;html=1;" parent="6iZnvACgIxLlrnmqDq4K-98" vertex="1">
          <mxGeometry y="60" width="140" height="30" as="geometry" />
        </mxCell>
        <mxCell id="6iZnvACgIxLlrnmqDq4K-107" value="*" style="text;html=1;strokeColor=none;fillColor=none;align=center;verticalAlign=middle;whiteSpace=wrap;rounded=0;" parent="1" vertex="1">
          <mxGeometry x="805" y="891" width="60" height="30" as="geometry" />
        </mxCell>
        <mxCell id="6iZnvACgIxLlrnmqDq4K-108" value="1" style="text;html=1;strokeColor=none;fillColor=none;align=center;verticalAlign=middle;whiteSpace=wrap;rounded=0;" parent="1" vertex="1">
          <mxGeometry x="935" y="814" width="60" height="30" as="geometry" />
        </mxCell>
        <mxCell id="6iZnvACgIxLlrnmqDq4K-133" style="edgeStyle=orthogonalEdgeStyle;rounded=0;orthogonalLoop=1;jettySize=auto;html=1;endArrow=classic;endFill=1;startArrow=classic;startFill=1;" parent="1" source="6iZnvACgIxLlrnmqDq4K-110" target="6iZnvACgIxLlrnmqDq4K-98" edge="1">
          <mxGeometry relative="1" as="geometry" />
        </mxCell>
        <mxCell id="6iZnvACgIxLlrnmqDq4K-110" value="&lt;b&gt;Computer&lt;/b&gt;" style="swimlane;fontStyle=0;childLayout=stackLayout;horizontal=1;startSize=30;horizontalStack=0;resizeParent=1;resizeParentMax=0;resizeLast=0;collapsible=1;marginBottom=0;whiteSpace=wrap;html=1;" parent="1" vertex="1">
          <mxGeometry x="971" y="597" width="197" height="90" as="geometry" />
        </mxCell>
        <mxCell id="6iZnvACgIxLlrnmqDq4K-111" value="+ Id (int) " style="text;strokeColor=none;fillColor=none;align=left;verticalAlign=middle;spacingLeft=4;spacingRight=4;overflow=hidden;points=[[0,0.5],[1,0.5]];portConstraint=eastwest;rotatable=0;whiteSpace=wrap;html=1;" parent="6iZnvACgIxLlrnmqDq4K-110" vertex="1">
          <mxGeometry y="30" width="197" height="30" as="geometry" />
        </mxCell>
        <mxCell id="6iZnvACgIxLlrnmqDq4K-112" value="+ Technical specifications (string)" style="text;strokeColor=none;fillColor=none;align=left;verticalAlign=middle;spacingLeft=4;spacingRight=4;overflow=hidden;points=[[0,0.5],[1,0.5]];portConstraint=eastwest;rotatable=0;whiteSpace=wrap;html=1;" parent="6iZnvACgIxLlrnmqDq4K-110" vertex="1">
          <mxGeometry y="60" width="197" height="30" as="geometry" />
        </mxCell>
        <mxCell id="6iZnvACgIxLlrnmqDq4K-119" value="1" style="text;html=1;strokeColor=none;fillColor=none;align=center;verticalAlign=middle;whiteSpace=wrap;rounded=0;" parent="1" vertex="1">
          <mxGeometry x="1020.5" y="763" width="60" height="30" as="geometry" />
        </mxCell>
        <mxCell id="6iZnvACgIxLlrnmqDq4K-120" value="1" style="text;html=1;strokeColor=none;fillColor=none;align=center;verticalAlign=middle;whiteSpace=wrap;rounded=0;" parent="1" vertex="1">
          <mxGeometry x="1020.5" y="690" width="60" height="30" as="geometry" />
        </mxCell>
        <mxCell id="6iZnvACgIxLlrnmqDq4K-129" value="*" style="text;html=1;strokeColor=none;fillColor=none;align=center;verticalAlign=middle;whiteSpace=wrap;rounded=0;" parent="1" vertex="1">
          <mxGeometry x="1151.5" y="989.5" width="60" height="30" as="geometry" />
        </mxCell>
        <mxCell id="6iZnvACgIxLlrnmqDq4K-130" value="1" style="text;html=1;strokeColor=none;fillColor=none;align=center;verticalAlign=middle;whiteSpace=wrap;rounded=0;" parent="1" vertex="1">
          <mxGeometry x="1275" y="909" width="60" height="30" as="geometry" />
        </mxCell>
        <mxCell id="6iZnvACgIxLlrnmqDq4K-131" value="*" style="text;html=1;strokeColor=none;fillColor=none;align=center;verticalAlign=middle;whiteSpace=wrap;rounded=0;" parent="1" vertex="1">
          <mxGeometry x="1359" y="612.5" width="60" height="30" as="geometry" />
        </mxCell>
        <mxCell id="6iZnvACgIxLlrnmqDq4K-132" value="*" style="text;html=1;strokeColor=none;fillColor=none;align=center;verticalAlign=middle;whiteSpace=wrap;rounded=0;" parent="1" vertex="1">
          <mxGeometry x="1157" y="612.5" width="60" height="30" as="geometry" />
        </mxCell>
        <mxCell id="AF57wnsFzuelbNc37cwG-5" value="&lt;b&gt;ComputerSoftware&lt;/b&gt;" style="swimlane;fontStyle=0;childLayout=stackLayout;horizontal=1;startSize=30;horizontalStack=0;resizeParent=1;resizeParentMax=0;resizeLast=0;collapsible=1;marginBottom=0;whiteSpace=wrap;html=1;" vertex="1" parent="1">
          <mxGeometry x="1228" y="699" width="140" height="90" as="geometry" />
        </mxCell>
        <mxCell id="AF57wnsFzuelbNc37cwG-6" value="&lt;b&gt;+ ComputerId (int)&lt;/b&gt;" style="text;strokeColor=none;fillColor=none;align=left;verticalAlign=middle;spacingLeft=4;spacingRight=4;overflow=hidden;points=[[0,0.5],[1,0.5]];portConstraint=eastwest;rotatable=0;whiteSpace=wrap;html=1;" vertex="1" parent="AF57wnsFzuelbNc37cwG-5">
          <mxGeometry y="30" width="140" height="30" as="geometry" />
        </mxCell>
        <mxCell id="AF57wnsFzuelbNc37cwG-7" value="&lt;b&gt;+ SoftwareId (int)&lt;/b&gt;" style="text;strokeColor=none;fillColor=none;align=left;verticalAlign=middle;spacingLeft=4;spacingRight=4;overflow=hidden;points=[[0,0.5],[1,0.5]];portConstraint=eastwest;rotatable=0;whiteSpace=wrap;html=1;" vertex="1" parent="AF57wnsFzuelbNc37cwG-5">
          <mxGeometry y="60" width="140" height="30" as="geometry" />
        </mxCell>
        <mxCell id="AF57wnsFzuelbNc37cwG-10" style="edgeStyle=orthogonalEdgeStyle;rounded=0;orthogonalLoop=1;jettySize=auto;html=1;endArrow=classic;endFill=1;" edge="1" parent="1" source="6iZnvACgIxLlrnmqDq4K-51" target="6iZnvACgIxLlrnmqDq4K-75">
          <mxGeometry relative="1" as="geometry" />
        </mxCell>
        <mxCell id="AF57wnsFzuelbNc37cwG-11" style="edgeStyle=orthogonalEdgeStyle;rounded=0;orthogonalLoop=1;jettySize=auto;html=1;endArrow=classic;endFill=1;" edge="1" parent="1" source="6iZnvACgIxLlrnmqDq4K-66" target="6iZnvACgIxLlrnmqDq4K-76">
          <mxGeometry relative="1" as="geometry" />
        </mxCell>
        <mxCell id="AF57wnsFzuelbNc37cwG-15" value="1" style="text;html=1;strokeColor=none;fillColor=none;align=center;verticalAlign=middle;whiteSpace=wrap;rounded=0;" vertex="1" parent="1">
          <mxGeometry x="576" y="567" width="60" height="30" as="geometry" />
        </mxCell>
        <mxCell id="AF57wnsFzuelbNc37cwG-16" value="*" style="text;html=1;strokeColor=none;fillColor=none;align=center;verticalAlign=middle;whiteSpace=wrap;rounded=0;" vertex="1" parent="1">
          <mxGeometry x="620" y="855" width="60" height="30" as="geometry" />
        </mxCell>
        <mxCell id="AF57wnsFzuelbNc37cwG-18" style="edgeStyle=orthogonalEdgeStyle;rounded=0;orthogonalLoop=1;jettySize=auto;html=1;" edge="1" parent="1" source="6iZnvACgIxLlrnmqDq4K-92" target="AF57wnsFzuelbNc37cwG-3">
          <mxGeometry relative="1" as="geometry" />
        </mxCell>
      </root>
    </mxGraphModel>
  </diagram>
</mxfile>
